<svg
  width="130"
  height="15"
  viewBox="0 0 258.75403 31.315926"
  version="1.1"
  id="svg5"
  fill="currentcolor"
>
  <title>hallowebsite logo</title>
  <g
    transform="translate(-18.781921,-90.168874)"
    aria-label="hallowebsite logo">
    <path
      d="m 40.940759,109.22713 v 11.53417 h -6.428543 v -11.41015 q 0,-2.91455 -1.136881,-4.05143 -1.136881,-1.15755 -3.410642,-1.15755 -2.129067,0 -3.472654,1.50895 -1.322915,1.48828 -1.322915,3.82405 v 11.3068 H 18.781921 V 91.636484 h 6.345862 l -0.04134,9.074376 q 2.935219,-2.067057 6.139155,-2.067057 9.715162,0 9.715161,10.583327 z"
    />
    <path
      d="m 50.221839,110.03328 q 0,2.62516 1.653645,4.27881 1.653644,1.65364 4.0721,1.65364 2.418455,0 4.051429,-1.63297 1.653644,-1.65365 1.653644,-4.29948 0,-2.58382 -1.653644,-4.23746 -1.653645,-1.65365 -4.0721,-1.65365 -2.439126,0 -4.0721,1.65365 -1.632974,1.63297 -1.632974,4.23746 z m -5.002275,5.74641 q -1.384927,-2.58381 -1.384927,-5.72574 0,-3.14192 1.384927,-5.72574 1.384928,-2.58382 4.030759,-4.13412 2.645831,-1.550287 6.077144,-1.550287 3.782712,0 6.69726,2.335777 l 0.268718,-1.653649 h 5.436356 V 120.7613 h -5.436356 l -0.289388,-1.63297 q -2.914549,2.3151 -6.67659,2.3151 -3.410642,0 -6.056473,-1.52962 -2.645832,-1.5503 -4.05143,-4.13412 z"
    />
    <path
      d="M 72.360008,120.7613 V 91.636484 h 6.387203 V 120.7613 Z"
    />
    <path
      d="M 83.108696,120.7613 V 91.636484 h 6.387202 V 120.7613 Z"
    />
    <path
      d="m 93.692019,114.47745 q -0.888834,-2.08773 -0.888834,-4.4235 0,-2.33577 0.868164,-4.4235 0.888834,-2.08773 2.439126,-3.61735 1.550291,-1.55029 3.782712,-2.459793 2.253093,-0.909504 4.836913,-0.909504 2.60449,0 4.83691,0.909504 2.25309,0.888833 3.80338,2.439123 1.55029,1.52962 2.43913,3.63802 0.88883,2.08773 0.88883,4.4235 0,2.33577 -0.88883,4.44417 -0.86817,2.08773 -2.43913,3.61735 -1.55029,1.52962 -3.80338,2.43912 -2.25309,0.88884 -4.87825,0.88884 -2.56315,0 -4.795573,-0.88884 -2.21175,-0.9095 -3.762042,-2.43912 -1.550292,-1.55029 -2.439126,-3.63802 z m 5.498369,-4.44417 q 0,2.62516 1.612302,4.27881 1.6123,1.65364 3.96875,1.65364 2.37711,0 3.96875,-1.63297 1.59163,-1.65365 1.59163,-4.29948 0,-2.60449 -1.61231,-4.23746 -1.59163,-1.65365 -3.96874,-1.65365 -2.37712,0 -3.96875,1.65365 -1.591632,1.63297 -1.591632,4.23746 z"
    />
    <path
      d="m 144.23154,99.325931 h 6.88329 l -7.52408,21.435369 h -5.72574 l -4.09277,-11.72021 -4.05143,11.72021 h -5.72575 l -7.48274,-21.435369 h 6.84196 l 4.15478,12.877759 h 0.062 l 3.9274,-12.774406 h 4.60954 l 3.90673,12.774406 h 0.0827 z"
    />
    <path
      d="m 165.83227,104.92765 q -1.34359,-0.93017 -3.0179,-0.93017 -1.67432,0 -3.03857,0.93017 -1.34359,0.90951 -2.00505,2.4598 h 10.08723 q -0.66145,-1.55029 -2.02571,-2.4598 z m -14.96548,5.1263 q 0,-2.33577 0.86816,-4.4235 0.88883,-2.08773 2.43913,-3.61735 1.55029,-1.55029 3.78271,-2.459793 2.23242,-0.909504 4.81624,-0.909504 2.60449,0 4.85758,0.909504 2.25309,0.888833 3.80338,2.439123 1.55029,1.52962 2.43913,3.63802 0.88883,2.08773 0.88883,4.4235 0,0.78548 -0.16536,1.77767 h -17.1359 q 0.4961,1.98437 1.98438,3.18326 1.50895,1.1989 3.3693,1.1989 1.44694,0 2.58382,-0.62012 1.13688,-0.64079 1.73633,-1.65364 h 6.90396 q -0.47542,1.44693 -1.46761,2.76985 -0.97151,1.32292 -2.37711,2.39778 -1.38493,1.0542 -3.32796,1.69499 -1.92236,0.64079 -4.09277,0.64079 -2.56315,0 -4.79557,-0.90951 -2.23242,-0.9095 -3.78271,-2.43912 -1.5503,-1.55029 -2.43913,-3.63802 -0.88883,-2.08773 -0.88883,-4.40283 z"
    />
    <path
      d="m 195.51518,110.03328 q 0,-2.60449 -1.63297,-4.23746 -1.6123,-1.65365 -4.05143,-1.65365 -2.41845,0 -4.0721,1.65365 -1.65364,1.65364 -1.65364,4.23746 0,2.64583 1.63297,4.29948 1.63298,1.65364 4.0721,1.65364 2.41846,0 4.05143,-1.65364 1.65364,-1.67432 1.65364,-4.29948 z m 6.40788,0.0207 q 0,2.35644 -0.82682,4.44417 -0.80616,2.08773 -2.27377,3.63802 -1.46761,1.55029 -3.63801,2.45979 -2.17041,0.88884 -4.73356,0.88884 -3.74137,0 -6.69726,-2.37712 l -0.28939,1.65365 h -5.43636 V 91.636484 h 6.38721 v 8.909006 q 2.62516,-1.922358 6.13915,-1.922358 3.43131,0 6.0358,1.570958 2.62516,1.5503 3.96875,4.13412 1.36426,2.58382 1.36426,5.72574 z"
    />
    <path
      d="m 203.49402,114.04337 6.28385,0.0207 q 0.0827,0.95084 0.99219,1.57096 0.93017,0.59945 2.33577,0.59945 3.43131,0 3.43131,-1.81901 0,-0.22738 -0.062,-0.41341 -0.062,-0.18604 -0.24805,-0.3514 -0.16536,-0.16537 -0.3514,-0.28939 -0.16536,-0.12402 -0.51676,-0.24805 -0.33073,-0.12402 -0.62012,-0.2067 -0.26871,-0.0827 -0.78548,-0.20671 -0.51676,-0.12402 -0.9095,-0.18603 -0.37207,-0.0827 -1.0542,-0.22738 -0.66146,-0.14469 -1.13688,-0.24805 -0.7028,-0.14469 -1.17822,-0.24804 -0.47543,-0.12403 -1.24024,-0.37207 -0.74414,-0.24805 -1.2609,-0.53744 -0.51676,-0.28939 -1.11621,-0.78548 -0.59945,-0.49609 -0.97152,-1.07487 -0.3514,-0.59944 -0.59944,-1.46761 -0.24805,-0.86816 -0.24805,-1.88102 0,-3.34863 2.41846,-5.18831 2.43912,-1.839677 7.25536,-1.839677 3.98942,0 6.30452,1.963707 2.3151,1.9637 2.3151,5.16764 l -6.40787,-0.0207 q -0.062,-0.82682 -0.78548,-1.36425 -0.7028,-0.55811 -1.88102,-0.55811 -1.38493,0 -2.12907,0.51677 -0.74414,0.51676 -0.72347,1.2609 0,0.78548 0.86817,1.13688 0.88883,0.33073 3.28661,0.66146 1.09554,0.18603 1.9017,0.37207 0.80615,0.16536 1.73632,0.45475 0.95085,0.26872 1.59163,0.59945 0.66146,0.33073 1.30225,0.82682 0.66146,0.49609 1.0542,1.09554 0.39274,0.59945 0.62012,1.42627 0.24804,0.80615 0.24804,1.79834 0,3.7207 -2.81119,5.62239 -2.8112,1.88102 -7.54476,1.88102 -2.37711,0 -4.23746,-0.66146 -1.83968,-0.66146 -2.93522,-1.73633 -1.09554,-1.09554 -1.65365,-2.37711 -0.53743,-1.28157 -0.53743,-2.6665 z"
    />
    <path
      d="M 225.90091,120.7613 V 99.325931 h 6.42854 V 120.7613 Z M 225.3428,93.558846 q 0,-1.426269 1.0542,-2.397785 1.07487,-0.992187 2.76986,-0.992187 1.69498,0 2.74918,0.992187 1.07487,0.971516 1.07487,2.397785 0,1.426268 -1.07487,2.397784 -1.0542,0.971516 -2.76985,0.971516 -1.67432,0 -2.74919,-0.971516 -1.0542,-0.992186 -1.0542,-2.397784 z"
    />
    <path
      d="m 238.36524,98.685144 1.94304,-5.270992 4.58886,-0.04134 v 5.95312 h 6.22184 v 5.477698 h -6.22184 v 7.52408 q 0,1.86035 0.80615,2.60449 0.80615,0.74414 2.23242,0.74414 h 3.57601 l -0.0413,5.22965 h -4.15478 q -1.57097,0 -2.79053,-0.18603 -1.19889,-0.18604 -2.37711,-0.72347 -1.15756,-0.55811 -1.92237,-1.48828 -0.76481,-0.93018 -1.24023,-2.4598 -0.45475,-1.55029 -0.45475,-3.65869 v -7.58609 h -3.41064 v -4.878252 z"
    />
    <path
      d="m 268.60627,104.92765 q -1.34358,-0.93017 -3.0179,-0.93017 -1.67431,0 -3.03857,0.93017 -1.34359,0.90951 -2.00505,2.4598 h 10.08724 q -0.66146,-1.55029 -2.02572,-2.4598 z m -14.96548,5.1263 q 0,-2.33577 0.86816,-4.4235 0.88884,-2.08773 2.43913,-3.61735 1.55029,-1.55029 3.78271,-2.459793 2.23242,-0.909504 4.81624,-0.909504 2.60449,0 4.85758,0.909504 2.25309,0.888833 3.80338,2.439123 1.5503,1.52962 2.43913,3.63802 0.88883,2.08773 0.88883,4.4235 0,0.78548 -0.16536,1.77767 H 260.2347 q 0.49609,1.98437 1.98437,3.18326 1.50895,1.1989 3.3693,1.1989 1.44694,0 2.58382,-0.62012 1.13688,-0.64079 1.73633,-1.65364 h 6.90396 q -0.47542,1.44693 -1.46761,2.76985 -0.97151,1.32292 -2.37711,2.39778 -1.38493,1.0542 -3.32796,1.69499 -1.92236,0.64079 -4.09277,0.64079 -2.56315,0 -4.79557,-0.90951 -2.23242,-0.9095 -3.78271,-2.43912 -1.55029,-1.55029 -2.43913,-3.63802 -0.88883,-2.08773 -0.88883,-4.40283 z"
    />
  </g>
</svg>
